:SAMPLES-PER-SECOND 30
:FULLY-SPECIFIED
:DEGREES
978
root  -23.429 39.0554 -0.0998329 148.889 -81.0026 -153.73
RightUpLeg  7.80967 -14.3228 3.29994
RightLeg  21.3957 0.211448 1.0167
RightFoot  -21.5509 -0.379184 -2.59519
RightToes  0.00048216 0.542163 -0.142577
Spine  14.8359 -0.626829 9.3674
Spine1  13.7006 0.849139 -1.29458
HEad  4.67983 6.84139 -5.90897
LeftShoulder1  9.57369 -13.8824 -48.0695
LeftArm  -6.46711 14.2114 -23.4081
LeftForeArm  26.6381 -24.7204 -3.88265
LeftHand  -0.25398 0.0180481 5.50724
RightShoulder  5.68033 10.0441 35.9476
RightArm  9.56069 12.0646 36.7633
RightForeArm  -6.15747 24.5496 5.57001
RightHand  -1.83909 4.76547 -21.1511
LeftUpLeg  -18.3735 6.13016 6.36851
LeftLeg  -5.68386 24.3066 -7.67864
LeftFoot  1.03423 0.396852 -3.6695
LeftToes  1.06245e-005 4.65856e-005 -8.18504e-006
979
root  -24.7795 38.7584 -0.202152 145.37 -81.808 -150.195
RightUpLeg  9.53983 -15.4833 2.84691
RightLeg  22.8457 0.443133 0.254892
RightFoot  -23.2414 -0.345477 -1.83891
RightToes  0.00048216 0.542163 -0.142577
Spine  15.4963 -0.833852 8.10957
Spine1  14.043 0.466929 -0.826479
HEad  4.49262 6.83366 -5.6031
LeftShoulder1  9.63893 -14.0059 -48.0557
LeftArm  -5.23827 13.5467 -22.865
LeftForeArm  25.6811 -22.9396 -3.64665
LeftHand  -0.25398 0.0180481 5.50724
RightShoulder  5.7882 10.2367 36.1401
RightArm  11.5881 13.8244 36.9477
RightForeArm  -6.15 22.415 5.31271
RightHand  -1.7159 4.37939 -20.5271
LeftUpLeg  -18.7241 5.79769 5.44587
LeftLeg  -5.76196 25.5252 -8.0476
LeftFoot  3.98214 -0.0279064 -0.199517
LeftToes  1.06245e-005 4.65856e-005 -8.18504e-006
980
root  -26.0649 38.4787 -0.356013 146.468 -83.2866 -151.108
RightUpLeg  10.052 -15.1794 1.86983
RightLeg  25.9257 -0.433314 -0.502241
RightFoot  -24.3791 -0.0216891 1.21477
RightToes  0.00048216 0.542163 -0.142577
Spine  16.9439 -0.498005 5.17336
Spine1  13.9845 0.102822 0.627456
HEad  3.9771 6.23578 -5.10554
LeftShoulder1  9.84022 -14.2304 -48.4419
LeftArm  -4.30997 11.95 -21.9926
LeftForeArm  25.1926 -20.9286 -3.74081
LeftHand  -0.25398 0.0180481 5.50724
RightShoulder  5.91114 10.4414 36.3956
RightArm  11.8709 15.0677 36.7096
RightForeArm  -4.81867 20.6188 5.62297
RightHand  -1.62741 4.12024 -20.0134
LeftUpLeg  -20.1313 6.15112 3.83749
LeftLeg  -2.00657 22.1728 -7.07456
LeftFoot  10.9275 -0.943953 4.48675
LeftToes  1.06245e-005 4.65856e-005 -8.18504e-006
981
root  -27.2769 38.2361 -0.467547 152.763 -84.3384 -157.126
RightUpLeg  7.7238 -14.3916 0.449386
RightLeg  33.6328 -0.601392 -0.66601
RightFoot  -22.5983 0.450303 6.36997
RightToes  0.00048216 0.542163 -0.142577
Spine  19.3472 0.255319 2.94132
Spine1  13.1818 0.260284 1.61671
HEad  2.92038 4.85301 -4.33323
LeftShoulder1  10.1407 -14.6319 -48.8196
LeftArm  -3.91906 9.30698 -20.9698
LeftForeArm  25.3316 -18.8215 -4.18806
LeftHand  -0.25398 0.0180481 5.50724
RightShoulder  6.06064 10.6885 36.7023
RightArm  10.8626 16.2108 36.264
RightForeArm  -2.75448 18.7185 6.25653
RightHand  -1.62909 4.14603 -19.9821
LeftUpLeg  -23.4911 11.1779 0.391133
LeftLeg  5.84398 13.9707 -4.34345
LeftFoot  15.2766 -1.77119 7.11817
LeftToes  1.06245e-005 4.65856e-005 -8.18504e-006
982
root  -28.3008 38.1168 -0.453832 163.682 -84.6196 -167.605
RightUpLeg  1.65311 -14.0597 -1.44965
RightLeg  45.8863 -0.129092 -0.481073
RightFoot  -14.6537 0.201734 10.2029
RightToes  0.00048216 0.542163 -0.142577
Spine  23.004 0.696262 2.47697
Spine1  12.1362 0.994602 0.5803
HEad  1.07358 3.18272 -3.93795
LeftShoulder1  10.4337 -15.1697 -48.7842
LeftArm  -4.0394 5.78062 -20.1608
LeftForeArm  26.0214 -16.9922 -4.76445
LeftHand  -0.25398 0.0180481 5.50724
RightShoulder  6.12622 10.9994 36.2527
RightArm  8.17241 17.8987 36.4222
RightForeArm  1.34279 16.0251 7.20286
RightHand  -1.57539 3.98922 -19.6471
LeftUpLeg  -27.1689 20.5648 -5.90512
LeftLeg  12.3317 3.23939 -1.22946
LeftFoot  15.0304 -2.17747 8.90443
LeftToes  1.06245e-005 4.65856e-005 -8.18504e-006
983
root  -29.0428 38.0264 -0.345416 176.781 -84.3305 179.987
RightUpLeg  -7.15643 -13.7598 -3.35528
RightLeg  58.6523 -0.187153 -0.847359
RightFoot  -3.31133 -0.714228 10.1869
RightToes  0.00048216 0.542163 -0.142577
Spine  27.5788 0.654339 2.67129
Spine1  11.6286 1.81132 -1.71187
HEad  -1.56418 2.03942 -4.63416
LeftShoulder1  10.6487 -15.7026 -48.4039
LeftArm  -4.43021 1.5349 -19.8213
LeftForeArm  26.9083 -15.9815 -5.14284
LeftHand  -0.25398 0.0180481 5.50724
RightShoulder  6.00621 11.345 34.4924
RightArm  4.16776 20.8157 37.4323
RightForeArm  7.34337 12.5839 8.14768
RightHand  -1.35055 3.25811 -18.2692
LeftUpLeg  -29.7278 23.8437 -9.6545
LeftLeg  16.2526 0.33885 0.133575
LeftFoot  12.433 -2.41826 11.0892
LeftToes  1.06245e-005 4.65856e-005 -8.18504e-006
984
root  -29.6025 37.9955 -0.250362 -174.239 -83.852 171.958
RightUpLeg  -16.2102 -13.6654 -4.4151
RightLeg  67.3537 -0.488289 -1.99773
RightFoot  3.33548 -0.977226 7.68428
RightToes  0.00048216 0.542163 -0.142577
Spine  32.1726 0.48777 2.79208
Spine1  11.7586 2.36923 -3.35484
HEad  -4.68323 1.57496 -6.14656
LeftShoulder1  10.7632 -16.1739 -47.7428
LeftArm  -5.12597 -3.4118 -20.068
LeftForeArm  27.7559 -15.9078 -5.16842
LeftHand  -0.25398 0.0180481 5.50724
RightShoulder  5.76348 11.6163 32.1685
RightArm  0.729989 25.2797 38.4456
RightForeArm  12.1705 9.24493 8.66992
RightHand  -1.07888 2.25225 -16.5416
LeftUpLeg  -31.0097 24.3804 -11.2534
LeftLeg  18.0854 -3.52086e-005 0.269818
LeftFoot  10.8264 -2.55247 12.623
LeftToes  1.06245e-005 4.65856e-005 -8.18504e-006
985
root  -30.1391 38.1867 -0.221012 -174.93 -83.5923 173.901
RightUpLeg  -23.9868 -14.1386 -3.83054
RightLeg  70.0033 -0.767751 -3.15397
RightFoot  3.31568 -0.709734 5.67236
RightToes  0.00048216 0.542163 -0.142577
Spine  36.3623 0.212804 3.72326
Spine1  12.0164 2.73015 -4.01226
HEad  -7.93831 1.23264 -7.38335
LeftShoulder1  10.7417 -16.6487 -46.4963
LeftArm  -6.52738 -9.04055 -20.9086
LeftForeArm  28.5174 -16.2122 -4.97511
LeftHand  -0.25398 0.0180481 5.50724
RightShoulder  5.52047 11.7476 30.2292
RightArm  -1.25813 30.8024 38.7735
RightForeArm  13.7965 6.73382 8.79159
RightHand  -0.937919 1.58087 -15.7555
LeftUpLeg  -31.5746 24.8852 -11.5155
LeftLeg  18.0909 -0.68522 0.0297738
LeftFoot  10.6635 -2.53107 12.626
LeftToes  1.06245e-005 4.65856e-005 -8.18504e-006
986
root  -30.636 38.4421 -0.25462 179.827 -83.7405 -179.264
RightUpLeg  -30.1659 -14.8375 -2.18831
RightLeg  66.6683 -0.994413 -3.25655
RightFoot  0.66399 -0.648318 6.22631
RightToes  0.00048216 0.542163 -0.142577
Spine  40.3624 -0.33177 5.14997
Spine1  12.2747 3.02435 -4.67397
HEad  -11.2378 0.629541 -7.71757
LeftShoulder1  10.6102 -17.1573 -44.7299
LeftArm  -8.70831 -15.2605 -21.9163
LeftForeArm  28.7222 -16.2766 -4.80785
LeftHand  -0.25398 0.0180481 5.50724
RightShoulder  5.23085 11.799 28.1707
RightArm  -2.88301 36.3588 38.9996
RightForeArm  13.2696 5.15772 8.56248
RightHand  -1.00472 1.80389 -16.3245
LeftUpLeg  -32.2842 24.8784 -11.1361
LeftLeg  17.7432 -0.840951 -0.0387118
LeftFoot  10.3455 -2.383 12.0611
LeftToes  1.06245e-005 4.65856e-005 -8.18504e-006
987
root  -31.0876 38.6043 -0.340749 173.93 -84.3521 -171.551
RightUpLeg  -34.6839 -15.4479 -0.34729
RightLeg  58.4222 -1.45946 -3.00885
RightFoot  -0.417368 -0.724393 7.51966
RightToes  0.00048216 0.542163 -0.142577
Spine  44.0289 -1.10756 6.3424
Spine1  12.7962 3.21299 -5.38002
HEad  -14.693 -0.197326 -7.50427
LeftShoulder1  10.5164 -17.7067 -43.0972
LeftArm  -11.4274 -21.9843 -22.3822
LeftForeArm  28.0256 -15.9989 -4.74122
LeftHand  -0.25398 0.0180481 5.50724
RightShoulder  4.76198 11.7696 25.0497
RightArm  -5.1445 41.4388 39.7493
RightForeArm  12.1259 4.26452 8.01577
RightHand  -1.28254 3.08358 -17.7187
LeftUpLeg  -33.4959 24.2136 -10.8531
LeftLeg  17.8318 -0.899748 -0.0888576
LeftFoot  9.5726 -2.28625 12.0229
LeftToes  1.06245e-005 4.65856e-005 -8.18504e-006
988
root  -31.5314 38.7272 -0.485664 165.451 -85.3 -161.181
RightUpLeg  -37.3799 -15.9577 1.50464
RightLeg  46.3903 -2.71775 -3.33646
RightFoot  -0.346215 -0.725029 7.49832
RightToes  0.00048216 0.542163 -0.142577
Spine  47.2191 -1.88648 7.4092
Spine1  13.5198 3.24462 -5.55723
HEad  -18.2136 -1.3426 -7.17374
LeftShoulder1  10.4994 -18.4164 -41.5268
LeftArm  -14.7568 -28.9129 -22.3199
LeftForeArm  27.4106 -15.6081 -4.62171
LeftHand  -0.25398 0.0180481 5.50724
RightShoulder  4.21649 11.5722 21.6655
RightArm  -7.53013 46.4008 39.9887
RightForeArm  10.5096 3.71898 7.51087
RightHand  -1.64998 4.73418 -19.116
LeftUpLeg  -34.9036 23.5692 -10.7348
LeftLeg  17.9403 -1.76273 -0.387046
LeftFoot  9.21439 -2.26275 12.1183
LeftToes  1.06245e-005 4.65856e-005 -8.18504e-006
